<svg width="148" height="137" viewBox="0 0 148 137" fill="none" xmlns="http://www.w3.org/2000/svg">
<g filter="url(#filter0_d_1091_6995)">
<path d="M26.8223 71.648C33.1663 71.648 35.1423 68.944 35.1423 64.68V25.472C29.5263 25.472 29.4223 28.592 29.4223 34.104V41.072H16.4223V12.16H73.6223V41.072H60.6223V34.104C60.6223 28.592 60.5183 25.472 54.9023 25.472V64.68C54.9023 68.944 57.6063 71.648 63.2223 71.648V86H26.8223V71.648Z" fill="#D8575D"/>
<path d="M60.7369 103.752C64.0009 103.464 65.5369 101.64 65.5369 98.28V66.6C65.5369 63.24 64.0009 61.416 60.7369 61.128V48.84H90.4009L95.4889 75.144L100.289 48.84H131.297V61.128C128.033 61.416 126.497 63.24 126.497 66.6V98.28C126.497 101.64 128.033 103.464 131.297 103.752V117H104.417V103.752C106.529 103.752 108.257 102.216 108.257 99.432V68.136L97.9849 117H89.3449L78.9769 69.48V99.432C78.9769 102.216 80.7049 103.752 82.8169 103.752V117H60.7369V103.752Z" fill="#D8575D"/>
</g>
<defs>
<filter id="filter0_d_1091_6995" x="0.422333" y="0.160156" width="146.875" height="136.84" filterUnits="userSpaceOnUse" color-interpolation-filters="sRGB">
<feFlood flood-opacity="0" result="BackgroundImageFix"/>
<feColorMatrix in="SourceAlpha" type="matrix" values="0 0 0 0 0 0 0 0 0 0 0 0 0 0 0 0 0 0 127 0" result="hardAlpha"/>
<feOffset dy="4"/>
<feGaussianBlur stdDeviation="8"/>
<feComposite in2="hardAlpha" operator="out"/>
<feColorMatrix type="matrix" values="0 0 0 0 0 0 0 0 0 0 0 0 0 0 0 0 0 0 0.25 0"/>
<feBlend mode="normal" in2="BackgroundImageFix" result="effect1_dropShadow_1091_6995"/>
<feBlend mode="normal" in="SourceGraphic" in2="effect1_dropShadow_1091_6995" result="shape"/>
</filter>
</defs>
</svg>
